<svg width="485" height="637" viewBox="0 0 485 637" fill="none" xmlns="http://www.w3.org/2000/svg">
<g clip-path="url(#clip0)">
<rect width="485" height="637" fill="white"/>
<rect x="-11" width="523" height="656" fill="url(#paint0_linear)"/>
<path d="M69.9418 262.095L246.56 588.01H-106.677L69.9418 262.095Z" fill="#53382B"/>
<path d="M69.9414 262.095L-7.77086 404.683H147.654L69.9414 262.095Z" fill="#C4AF7C"/>
<path d="M-7.5564 404.683L32.2122 449.949L73.0006 404.683H-7.5564Z" fill="#C4AF7C"/>
<path d="M73.0006 404.683L117.868 449.949L146.42 404.683H73.0006Z" fill="#C4AF7C"/>
<path d="M435.526 262.095L616.07 588.01H254.983L435.526 262.095Z" fill="#53382B"/>
<path d="M435.526 262.095L356.087 404.683H514.965L435.526 262.095Z" fill="#C4AF7C"/>
<path d="M356.306 404.683L396.959 449.949L438.653 404.683H356.306Z" fill="#C4AF7C"/>
<path d="M438.653 404.683L484.518 449.949L513.704 404.683H438.653Z" fill="#C4AF7C"/>
<path d="M251.223 117.245L439.617 586.562H62.8298L251.223 117.245Z" fill="#53382B"/>
<path d="M251.224 117.244L168.33 322.57H334.117L251.224 117.244Z" fill="url(#paint1_linear)"/>
<path d="M168.559 322.57L210.979 387.753L254.486 322.57H168.559Z" fill="#C4AF7C"/>
<path d="M254.486 322.57L302.345 387.753L332.8 322.57H254.486Z" fill="#C4AF7C"/>
<ellipse cx="398.514" cy="618.939" rx="65.7146" ry="53.1688" fill="#91C328"/>
<ellipse cx="292.767" cy="618.939" rx="65.7146" ry="53.1688" fill="#91C328"/>
<ellipse cx="188.53" cy="618.939" rx="65.7146" ry="53.1688" fill="#91C328"/>
<ellipse cx="501.241" cy="618.939" rx="65.7146" ry="53.1688" fill="#91C328"/>
<ellipse cx="-9.36917" cy="618.939" rx="65.7146" ry="53.1688" fill="#91C328"/>
<ellipse cx="90.3357" cy="618.939" rx="65.7146" ry="53.1688" fill="#91C328"/>
</g>
<defs>
<linearGradient id="paint0_linear" x1="11.6734" y1="580.99" x2="459.29" y2="69.1475" gradientUnits="userSpaceOnUse">
<stop stop-color="#7C81FA"/>
<stop offset="1" stop-color="#D0D2FF" stop-opacity="0.54"/>
</linearGradient>
<linearGradient id="paint1_linear" x1="251.224" y1="117.244" x2="317.688" y2="269.935" gradientUnits="userSpaceOnUse">
<stop offset="0.411458" stop-color="white" stop-opacity="0.94"/>
<stop offset="1" stop-color="#C4AF7C"/>
</linearGradient>
<clipPath id="clip0">
<rect width="485" height="637" fill="white"/>
</clipPath>
</defs>
</svg>
